<svg width="1105" height="1136" viewBox="0 0 1105 1136" fill="none" xmlns="http://www.w3.org/2000/svg">
<rect width="1105" height="1136" fill="none"/>
<path d="M312.936 847.776C313.576 847.776 314.2 847.776 314.808 847.776C315.416 847.744 315.944 847.696 316.392 847.632V842.448C316.008 842.384 315.544 842.336 315 842.304C314.456 842.24 313.96 842.208 313.512 842.208C312.904 842.208 312.312 842.256 311.736 842.352C311.16 842.416 310.648 842.544 310.2 842.736C309.784 842.928 309.448 843.2 309.192 843.552C308.936 843.904 308.808 844.368 308.808 844.944C308.808 845.968 309.192 846.704 309.96 847.152C310.728 847.568 311.72 847.776 312.936 847.776ZM312.408 828.864C314.264 828.864 315.8 829.088 317.016 829.536C318.264 829.952 319.256 830.56 319.992 831.36C320.728 832.128 321.256 833.088 321.576 834.24C321.896 835.36 322.056 836.624 322.056 838.032V851.472C321.192 851.664 319.912 851.888 318.216 852.144C316.52 852.4 314.616 852.528 312.504 852.528C311.064 852.528 309.752 852.4 308.568 852.144C307.416 851.888 306.424 851.472 305.592 850.896C304.76 850.288 304.12 849.52 303.672 848.592C303.224 847.632 303 846.464 303 845.088C303 843.776 303.256 842.672 303.768 841.776C304.28 840.88 304.968 840.16 305.832 839.616C306.696 839.072 307.688 838.688 308.808 838.464C309.928 838.208 311.096 838.08 312.312 838.08C313.848 838.08 315.208 838.208 316.392 838.464V837.744C316.392 836.624 316.04 835.696 315.336 834.96C314.632 834.192 313.416 833.808 311.688 833.808C310.568 833.808 309.48 833.888 308.424 834.048C307.4 834.208 306.568 834.4 305.928 834.624L305.112 829.872C305.848 829.616 306.888 829.392 308.232 829.2C309.576 828.976 310.968 828.864 312.408 828.864Z" fill="#627EEA"/>
<path d="M340.344 852C339.992 851.008 339.656 850.096 339.336 849.264C339.048 848.432 338.76 847.632 338.472 846.864C338.216 846.064 337.944 845.248 337.656 844.416C337.4 843.552 337.128 842.608 336.84 841.584C336.52 842.608 336.232 843.536 335.976 844.368C335.72 845.168 335.448 845.968 335.16 846.768C334.904 847.568 334.632 848.384 334.344 849.216C334.056 850.048 333.704 850.976 333.288 852H328.824C328.44 850.592 328.072 849.04 327.72 847.344C327.4 845.616 327.096 843.792 326.808 841.872C326.52 839.92 326.264 837.904 326.04 835.824C325.816 833.744 325.608 831.616 325.416 829.44H330.456C330.584 832.224 330.712 834.944 330.84 837.6C331 840.256 331.272 842.992 331.656 845.808C332.072 844.592 332.424 843.472 332.712 842.448C333.032 841.392 333.304 840.4 333.528 839.472C333.784 838.512 334.008 837.6 334.2 836.736C334.424 835.84 334.648 834.928 334.872 834H339.144C339.336 834.928 339.528 835.84 339.72 836.736C339.944 837.6 340.168 838.512 340.392 839.472C340.648 840.4 340.904 841.392 341.16 842.448C341.448 843.472 341.784 844.592 342.168 845.808C342.36 844.336 342.52 842.928 342.648 841.584C342.776 840.24 342.872 838.912 342.936 837.6C343.032 836.256 343.096 834.928 343.128 833.616C343.192 832.272 343.256 830.88 343.32 829.44H348.36C348.008 833.824 347.512 837.952 346.872 841.824C346.264 845.696 345.576 849.088 344.808 852H340.344Z" fill="#627EEA"/>
<path d="M350.376 840.912C350.376 838.928 350.68 837.184 351.288 835.68C351.896 834.176 352.696 832.928 353.688 831.936C354.68 830.912 355.816 830.144 357.096 829.632C358.376 829.12 359.688 828.864 361.032 828.864C364.36 828.864 366.888 829.856 368.616 831.84C370.344 833.792 371.208 836.656 371.208 840.432C371.208 840.816 371.192 841.216 371.16 841.632C371.16 842.048 371.144 842.384 371.112 842.64H356.472C356.472 844.112 357.08 845.28 358.296 846.144C359.512 846.976 361.08 847.392 363 847.392C364.184 847.392 365.304 847.264 366.36 847.008C367.448 846.752 368.36 846.496 369.096 846.24L369.912 851.28C368.888 851.632 367.8 851.92 366.648 852.144C365.496 852.4 364.2 852.528 362.76 852.528C360.84 852.528 359.112 852.288 357.576 851.808C356.072 851.296 354.776 850.56 353.688 849.6C352.632 848.608 351.816 847.392 351.24 845.952C350.664 844.512 350.376 842.832 350.376 840.912ZM365.496 838.56C365.496 837.952 365.416 837.376 365.256 836.832C365.096 836.256 364.84 835.744 364.488 835.296C364.136 834.848 363.688 834.496 363.144 834.24C362.6 833.952 361.928 833.808 361.128 833.808C360.36 833.808 359.688 833.936 359.112 834.192C358.568 834.448 358.104 834.8 357.72 835.248C357.368 835.696 357.08 836.208 356.856 836.784C356.664 837.36 356.536 837.952 356.472 838.56H365.496Z" fill="#627EEA"/>
<path d="M383.832 847.536C385.272 847.536 386.376 847.44 387.144 847.248C387.912 847.024 388.296 846.592 388.296 845.952C388.296 845.536 388.168 845.184 387.912 844.896C387.688 844.608 387.352 844.368 386.904 844.176C386.488 843.952 385.992 843.744 385.416 843.552C384.872 843.36 384.296 843.168 383.688 842.976C382.824 842.72 381.944 842.432 381.048 842.112C380.152 841.76 379.336 841.328 378.6 840.816C377.864 840.304 377.256 839.664 376.776 838.896C376.296 838.096 376.056 837.104 376.056 835.92C376.056 834.96 376.232 834.064 376.584 833.232C376.968 832.368 377.544 831.616 378.312 830.976C379.112 830.304 380.12 829.792 381.336 829.44C382.552 829.056 384.008 828.864 385.704 828.864C387.176 828.864 388.536 828.976 389.784 829.2C391.064 829.424 392.168 829.744 393.096 830.16L392.184 835.152C391.64 834.992 390.792 834.736 389.64 834.384C388.488 834 387.192 833.808 385.752 833.808C384.248 833.808 383.224 834 382.68 834.384C382.168 834.736 381.912 835.12 381.912 835.536C381.912 835.888 382.024 836.208 382.248 836.496C382.504 836.752 382.824 836.992 383.208 837.216C383.624 837.44 384.088 837.664 384.6 837.888C385.144 838.08 385.72 838.272 386.328 838.464C387.192 838.752 388.088 839.072 389.016 839.424C389.944 839.776 390.776 840.224 391.512 840.768C392.28 841.28 392.904 841.952 393.384 842.784C393.864 843.584 394.104 844.576 394.104 845.76C394.104 846.688 393.928 847.568 393.576 848.4C393.224 849.232 392.632 849.952 391.8 850.56C391 851.168 389.944 851.648 388.632 852C387.32 852.352 385.704 852.528 383.784 852.528C381.832 852.528 380.168 852.304 378.792 851.856C377.416 851.408 376.312 851.008 375.48 850.656L376.392 845.712C377.512 846.16 378.696 846.576 379.944 846.96C381.224 847.344 382.52 847.536 383.832 847.536Z" fill="#627EEA"/>
<path d="M419.544 840.672C419.544 842.464 419.288 844.096 418.776 845.568C418.264 847.008 417.544 848.256 416.616 849.312C415.688 850.368 414.568 851.184 413.256 851.76C411.976 852.336 410.536 852.624 408.936 852.624C407.336 852.624 405.88 852.336 404.568 851.76C403.288 851.184 402.168 850.368 401.208 849.312C400.28 848.256 399.56 847.008 399.048 845.568C398.536 844.096 398.28 842.464 398.28 840.672C398.28 838.912 398.536 837.312 399.048 835.872C399.592 834.4 400.328 833.152 401.256 832.128C402.216 831.072 403.352 830.272 404.664 829.728C405.976 829.152 407.4 828.864 408.936 828.864C410.504 828.864 411.928 829.152 413.208 829.728C414.52 830.272 415.64 831.072 416.568 832.128C417.528 833.152 418.264 834.4 418.776 835.872C419.288 837.312 419.544 838.912 419.544 840.672ZM404.28 840.72C404.28 842.736 404.632 844.368 405.336 845.616C406.072 846.864 407.24 847.488 408.84 847.488C410.376 847.488 411.528 846.864 412.296 845.616C413.096 844.368 413.496 842.736 413.496 840.72C413.496 838.704 413.128 837.088 412.392 835.872C411.688 834.624 410.536 834 408.936 834C407.4 834 406.232 834.624 405.432 835.872C404.664 837.088 404.28 838.704 404.28 840.72Z" fill="#627EEA"/>
<path d="M437.352 829.2C438.6 829.2 439.624 829.392 440.424 829.776C441.224 830.16 441.848 830.736 442.296 831.504C442.776 832.272 443.096 833.248 443.256 834.432C443.416 835.584 443.496 836.944 443.496 838.512V852H438.696V838.224C438.696 837.328 438.632 836.608 438.504 836.064C438.408 835.52 438.264 835.104 438.072 834.816C437.912 834.528 437.704 834.336 437.448 834.24C437.224 834.144 436.984 834.096 436.728 834.096C436.44 834.096 436.136 834.128 435.816 834.192C435.496 834.224 435.208 834.304 434.952 834.432C435.048 835.04 435.128 835.712 435.192 836.448C435.256 837.184 435.288 838 435.288 838.896V843.408H430.488V838.224C430.488 836.688 430.328 835.616 430.008 835.008C429.72 834.4 429.24 834.096 428.568 834.096C428.376 834.096 428.136 834.112 427.848 834.144C427.592 834.176 427.336 834.224 427.08 834.288V852H422.28V830.304C423.528 829.952 424.76 829.68 425.976 829.488C427.192 829.296 428.264 829.2 429.192 829.2C430.024 829.2 430.76 829.312 431.4 829.536C432.072 829.728 432.648 830.064 433.128 830.544C433.672 830.192 434.312 829.888 435.048 829.632C435.784 829.344 436.552 829.2 437.352 829.2Z" fill="#627EEA"/>
<path d="M446.376 840.912C446.376 838.928 446.68 837.184 447.288 835.68C447.896 834.176 448.696 832.928 449.688 831.936C450.68 830.912 451.816 830.144 453.096 829.632C454.376 829.12 455.688 828.864 457.032 828.864C460.36 828.864 462.888 829.856 464.616 831.84C466.344 833.792 467.208 836.656 467.208 840.432C467.208 840.816 467.192 841.216 467.16 841.632C467.16 842.048 467.144 842.384 467.112 842.64H452.472C452.472 844.112 453.08 845.28 454.296 846.144C455.512 846.976 457.08 847.392 459 847.392C460.184 847.392 461.304 847.264 462.36 847.008C463.448 846.752 464.36 846.496 465.096 846.24L465.912 851.28C464.888 851.632 463.8 851.92 462.648 852.144C461.496 852.4 460.2 852.528 458.76 852.528C456.84 852.528 455.112 852.288 453.576 851.808C452.072 851.296 450.776 850.56 449.688 849.6C448.632 848.608 447.816 847.392 447.24 845.952C446.664 844.512 446.376 842.832 446.376 840.912ZM461.496 838.56C461.496 837.952 461.416 837.376 461.256 836.832C461.096 836.256 460.84 835.744 460.488 835.296C460.136 834.848 459.688 834.496 459.144 834.24C458.6 833.952 457.928 833.808 457.128 833.808C456.36 833.808 455.688 833.936 455.112 834.192C454.568 834.448 454.104 834.8 453.72 835.248C453.368 835.696 453.08 836.208 452.856 836.784C452.664 837.36 452.536 837.952 452.472 838.56H461.496Z" fill="#627EEA"/>
<path d="M508.344 852C507.992 851.008 507.656 850.096 507.336 849.264C507.048 848.432 506.76 847.632 506.472 846.864C506.216 846.064 505.944 845.248 505.656 844.416C505.4 843.552 505.128 842.608 504.84 841.584C504.52 842.608 504.232 843.536 503.976 844.368C503.72 845.168 503.448 845.968 503.16 846.768C502.904 847.568 502.632 848.384 502.344 849.216C502.056 850.048 501.704 850.976 501.288 852H496.824C496.44 850.592 496.072 849.04 495.72 847.344C495.4 845.616 495.096 843.792 494.808 841.872C494.52 839.92 494.264 837.904 494.04 835.824C493.816 833.744 493.608 831.616 493.416 829.44H498.456C498.584 832.224 498.712 834.944 498.84 837.6C499 840.256 499.272 842.992 499.656 845.808C500.072 844.592 500.424 843.472 500.712 842.448C501.032 841.392 501.304 840.4 501.528 839.472C501.784 838.512 502.008 837.6 502.2 836.736C502.424 835.84 502.648 834.928 502.872 834H507.144C507.336 834.928 507.528 835.84 507.72 836.736C507.944 837.6 508.168 838.512 508.392 839.472C508.648 840.4 508.904 841.392 509.16 842.448C509.448 843.472 509.784 844.592 510.168 845.808C510.36 844.336 510.52 842.928 510.648 841.584C510.776 840.24 510.872 838.912 510.936 837.6C511.032 836.256 511.096 834.928 511.128 833.616C511.192 832.272 511.256 830.88 511.32 829.44H516.36C516.008 833.824 515.512 837.952 514.872 841.824C514.264 845.696 513.576 849.088 512.808 852H508.344Z" fill="#627EEA"/>
<path d="M518.376 840.912C518.376 838.928 518.68 837.184 519.288 835.68C519.896 834.176 520.696 832.928 521.688 831.936C522.68 830.912 523.816 830.144 525.096 829.632C526.376 829.12 527.688 828.864 529.032 828.864C532.36 828.864 534.888 829.856 536.616 831.84C538.344 833.792 539.208 836.656 539.208 840.432C539.208 840.816 539.192 841.216 539.16 841.632C539.16 842.048 539.144 842.384 539.112 842.64H524.472C524.472 844.112 525.08 845.28 526.296 846.144C527.512 846.976 529.08 847.392 531 847.392C532.184 847.392 533.304 847.264 534.36 847.008C535.448 846.752 536.36 846.496 537.096 846.24L537.912 851.28C536.888 851.632 535.8 851.92 534.648 852.144C533.496 852.4 532.2 852.528 530.76 852.528C528.84 852.528 527.112 852.288 525.576 851.808C524.072 851.296 522.776 850.56 521.688 849.6C520.632 848.608 519.816 847.392 519.24 845.952C518.664 844.512 518.376 842.832 518.376 840.912ZM533.496 838.56C533.496 837.952 533.416 837.376 533.256 836.832C533.096 836.256 532.84 835.744 532.488 835.296C532.136 834.848 531.688 834.496 531.144 834.24C530.6 833.952 529.928 833.808 529.128 833.808C528.36 833.808 527.688 833.936 527.112 834.192C526.568 834.448 526.104 834.8 525.72 835.248C525.368 835.696 525.08 836.208 524.856 836.784C524.664 837.36 524.536 837.952 524.472 838.56H533.496Z" fill="#627EEA"/>
<path d="M557.448 840.576C557.448 838.464 557.096 836.848 556.392 835.728C555.72 834.608 554.68 834.048 553.272 834.048C552.632 834.048 551.992 834.144 551.352 834.336C550.744 834.496 550.216 834.704 549.768 834.96V847.2C550.216 847.296 550.68 847.36 551.16 847.392C551.672 847.424 552.104 847.44 552.456 847.44C553.992 847.44 555.208 846.928 556.104 845.904C557 844.848 557.448 843.072 557.448 840.576ZM563.448 840.72C563.448 842.512 563.208 844.144 562.728 845.616C562.248 847.056 561.544 848.288 560.616 849.312C559.688 850.336 558.552 851.136 557.208 851.712C555.864 852.256 554.328 852.528 552.6 852.528C551.064 852.528 549.496 852.416 547.896 852.192C546.296 851.968 544.952 851.68 543.864 851.328V819.696L549.768 818.688V829.968C550.6 829.584 551.4 829.328 552.168 829.2C552.936 829.04 553.704 828.96 554.472 828.96C555.944 828.96 557.24 829.248 558.36 829.824C559.48 830.368 560.408 831.168 561.144 832.224C561.912 833.248 562.488 834.48 562.872 835.92C563.256 837.36 563.448 838.96 563.448 840.72Z" fill="#627EEA"/>
<path d="M575.112 852.624C574.376 852.624 573.592 852.56 572.76 852.432C571.96 852.336 571.176 852.208 570.408 852.048C569.672 851.888 568.984 851.712 568.344 851.52C567.704 851.328 567.208 851.152 566.856 850.992L568.008 846.048C568.744 846.368 569.688 846.704 570.84 847.056C572.024 847.408 573.432 847.584 575.064 847.584C577.08 847.584 578.488 847.152 579.288 846.288C580.12 845.424 580.536 844.352 580.536 843.072C580.536 841.504 579.912 840.416 578.664 839.808C577.416 839.168 575.832 838.848 573.912 838.848H572.088V833.952H574.296C574.904 833.952 575.512 833.888 576.12 833.76C576.728 833.632 577.272 833.424 577.752 833.136C578.232 832.848 578.616 832.464 578.904 831.984C579.224 831.504 579.384 830.896 579.384 830.16C579.384 829.072 579.048 828.224 578.376 827.616C577.736 826.976 576.84 826.656 575.688 826.656C574.568 826.656 573.448 826.848 572.328 827.232C571.24 827.584 570.296 828.032 569.496 828.576L567.384 824.256C568.248 823.68 569.384 823.104 570.792 822.528C572.232 821.92 573.848 821.616 575.64 821.616C577.304 821.616 578.744 821.824 579.96 822.24C581.208 822.656 582.232 823.248 583.032 824.016C583.832 824.752 584.424 825.632 584.808 826.656C585.192 827.68 585.384 828.784 585.384 829.968C585.384 831.152 585.048 832.288 584.376 833.376C583.704 834.464 582.808 835.296 581.688 835.872C583.224 836.512 584.408 837.456 585.24 838.704C586.104 839.952 586.536 841.44 586.536 843.168C586.536 844.544 586.312 845.808 585.864 846.96C585.416 848.112 584.728 849.12 583.8 849.984C582.872 850.816 581.688 851.472 580.248 851.952C578.808 852.4 577.096 852.624 575.112 852.624Z" fill="#627EEA"/>
<path d="M623.832 847.536C625.272 847.536 626.376 847.44 627.144 847.248C627.912 847.024 628.296 846.592 628.296 845.952C628.296 845.536 628.168 845.184 627.912 844.896C627.688 844.608 627.352 844.368 626.904 844.176C626.488 843.952 625.992 843.744 625.416 843.552C624.872 843.36 624.296 843.168 623.688 842.976C622.824 842.72 621.944 842.432 621.048 842.112C620.152 841.76 619.336 841.328 618.6 840.816C617.864 840.304 617.256 839.664 616.776 838.896C616.296 838.096 616.056 837.104 616.056 835.92C616.056 834.96 616.232 834.064 616.584 833.232C616.968 832.368 617.544 831.616 618.312 830.976C619.112 830.304 620.12 829.792 621.336 829.44C622.552 829.056 624.008 828.864 625.704 828.864C627.176 828.864 628.536 828.976 629.784 829.2C631.064 829.424 632.168 829.744 633.096 830.16L632.184 835.152C631.64 834.992 630.792 834.736 629.64 834.384C628.488 834 627.192 833.808 625.752 833.808C624.248 833.808 623.224 834 622.68 834.384C622.168 834.736 621.912 835.12 621.912 835.536C621.912 835.888 622.024 836.208 622.248 836.496C622.504 836.752 622.824 836.992 623.208 837.216C623.624 837.44 624.088 837.664 624.6 837.888C625.144 838.08 625.72 838.272 626.328 838.464C627.192 838.752 628.088 839.072 629.016 839.424C629.944 839.776 630.776 840.224 631.512 840.768C632.28 841.28 632.904 841.952 633.384 842.784C633.864 843.584 634.104 844.576 634.104 845.76C634.104 846.688 633.928 847.568 633.576 848.4C633.224 849.232 632.632 849.952 631.8 850.56C631 851.168 629.944 851.648 628.632 852C627.32 852.352 625.704 852.528 623.784 852.528C621.832 852.528 620.168 852.304 618.792 851.856C617.416 851.408 616.312 851.008 615.48 850.656L616.392 845.712C617.512 846.16 618.696 846.576 619.944 846.96C621.224 847.344 622.52 847.536 623.832 847.536Z" fill="#627EEA"/>
<path d="M638.376 840.912C638.376 838.928 638.68 837.184 639.288 835.68C639.896 834.176 640.696 832.928 641.688 831.936C642.68 830.912 643.816 830.144 645.096 829.632C646.376 829.12 647.688 828.864 649.032 828.864C652.36 828.864 654.888 829.856 656.616 831.84C658.344 833.792 659.208 836.656 659.208 840.432C659.208 840.816 659.192 841.216 659.16 841.632C659.16 842.048 659.144 842.384 659.112 842.64H644.472C644.472 844.112 645.08 845.28 646.296 846.144C647.512 846.976 649.08 847.392 651 847.392C652.184 847.392 653.304 847.264 654.36 847.008C655.448 846.752 656.36 846.496 657.096 846.24L657.912 851.28C656.888 851.632 655.8 851.92 654.648 852.144C653.496 852.4 652.2 852.528 650.76 852.528C648.84 852.528 647.112 852.288 645.576 851.808C644.072 851.296 642.776 850.56 641.688 849.6C640.632 848.608 639.816 847.392 639.24 845.952C638.664 844.512 638.376 842.832 638.376 840.912ZM653.496 838.56C653.496 837.952 653.416 837.376 653.256 836.832C653.096 836.256 652.84 835.744 652.488 835.296C652.136 834.848 651.688 834.496 651.144 834.24C650.6 833.952 649.928 833.808 649.128 833.808C648.36 833.808 647.688 833.936 647.112 834.192C646.568 834.448 646.104 834.8 645.72 835.248C645.368 835.696 645.08 836.208 644.856 836.784C644.664 837.36 644.536 837.952 644.472 838.56H653.496Z" fill="#627EEA"/>
<path d="M663 840.72C663 839.088 663.256 837.552 663.768 836.112C664.28 834.672 665.064 833.424 666.12 832.368C667.176 831.28 668.504 830.432 670.104 829.824C671.736 829.184 673.672 828.864 675.912 828.864C677.256 828.864 678.472 828.96 679.56 829.152C680.648 829.344 681.752 829.664 682.872 830.112L681.576 834.864C680.936 834.64 680.216 834.448 679.416 834.288C678.648 834.096 677.656 834 676.44 834C675.032 834 673.848 834.176 672.888 834.528C671.96 834.848 671.208 835.312 670.632 835.92C670.056 836.496 669.64 837.2 669.384 838.032C669.128 838.864 669 839.76 669 840.72C669 842.8 669.576 844.432 670.728 845.616C671.912 846.8 673.912 847.392 676.728 847.392C677.656 847.392 678.616 847.328 679.608 847.2C680.632 847.072 681.56 846.864 682.392 846.576L683.256 851.424C682.424 851.744 681.416 852 680.232 852.192C679.048 852.416 677.656 852.528 676.056 852.528C673.752 852.528 671.768 852.224 670.104 851.616C668.472 851.008 667.128 850.176 666.072 849.12C665.016 848.064 664.232 846.816 663.72 845.376C663.24 843.936 663 842.384 663 840.72Z" fill="#627EEA"/>
<path d="M705.912 851.232C704.824 851.52 703.496 851.808 701.928 852.096C700.392 852.384 698.712 852.528 696.888 852.528C695.032 852.528 693.512 852.272 692.328 851.76C691.144 851.248 690.2 850.528 689.496 849.6C688.824 848.64 688.36 847.52 688.104 846.24C687.848 844.96 687.72 843.552 687.72 842.016V829.44H693.624V841.248C693.624 843.328 693.864 844.88 694.344 845.904C694.856 846.896 695.832 847.392 697.272 847.392C698.168 847.392 699.064 847.312 699.96 847.152V829.44H705.912V851.232Z" fill="#627EEA"/>
<path d="M729.864 835.44C729.48 835.344 729.016 835.248 728.472 835.152C727.96 835.056 727.432 834.976 726.888 834.912C726.344 834.816 725.816 834.752 725.304 834.72C724.792 834.688 724.36 834.672 724.008 834.672C723.176 834.672 722.36 834.72 721.56 834.816C720.76 834.88 719.944 835.024 719.112 835.248V852H713.16V830.928C714.728 830.352 716.328 829.888 717.96 829.536C719.624 829.184 721.56 829.008 723.768 829.008C724.088 829.008 724.536 829.024 725.112 829.056C725.72 829.088 726.36 829.152 727.032 829.248C727.704 829.312 728.376 829.408 729.048 829.536C729.752 829.632 730.376 829.776 730.92 829.968L729.864 835.44Z" fill="#627EEA"/>
<path d="M746.52 822.96C746.52 824.112 746.152 825.024 745.416 825.696C744.68 826.368 743.8 826.704 742.776 826.704C741.752 826.704 740.872 826.368 740.136 825.696C739.432 825.024 739.08 824.112 739.08 822.96C739.08 821.776 739.432 820.848 740.136 820.176C740.872 819.504 741.752 819.168 742.776 819.168C743.8 819.168 744.68 819.504 745.416 820.176C746.152 820.848 746.52 821.776 746.52 822.96ZM755.304 851.04C754.088 851.616 752.936 852 751.848 852.192C750.792 852.416 749.816 852.528 748.92 852.528C747.384 852.528 746.088 852.304 745.032 851.856C744.008 851.408 743.176 850.768 742.536 849.936C741.928 849.072 741.496 848.032 741.24 846.816C740.984 845.6 740.856 844.208 740.856 842.64V834.336H734.616V829.44H746.76V843.408C746.76 844.752 747 845.76 747.48 846.432C747.992 847.072 748.824 847.392 749.976 847.392C750.52 847.392 751.176 847.328 751.944 847.2C752.712 847.04 753.576 846.736 754.536 846.288L755.304 851.04Z" fill="#627EEA"/>
<path d="M763.752 834.336H758.616V829.44H763.752V823.776L769.656 822.816V829.44H779.112V834.336H769.656V843.456C769.656 844.288 769.736 844.96 769.896 845.472C770.056 845.984 770.28 846.384 770.568 846.672C770.856 846.96 771.208 847.152 771.624 847.248C772.04 847.344 772.504 847.392 773.016 847.392C773.56 847.392 774.056 847.376 774.504 847.344C774.984 847.312 775.432 847.264 775.848 847.2C776.296 847.104 776.744 846.976 777.192 846.816C777.672 846.656 778.184 846.448 778.728 846.192L779.544 851.28C778.456 851.728 777.272 852.048 775.992 852.24C774.744 852.432 773.528 852.528 772.344 852.528C770.968 852.528 769.752 852.416 768.696 852.192C767.64 851.968 766.744 851.536 766.008 850.896C765.272 850.256 764.712 849.36 764.328 848.208C763.944 847.024 763.752 845.488 763.752 843.6V834.336Z" fill="#627EEA"/>
<path d="M803.544 829.44C802.936 831.552 802.344 833.632 801.768 835.68C801.224 837.696 800.648 839.68 800.04 841.632C799.432 843.552 798.776 845.44 798.072 847.296C797.4 849.152 796.664 850.96 795.864 852.72C795.256 854 794.648 855.104 794.04 856.032C793.464 856.96 792.808 857.712 792.072 858.288C791.368 858.896 790.568 859.344 789.672 859.632C788.808 859.92 787.784 860.064 786.6 860.064C785.608 860.064 784.696 859.984 783.864 859.824C783.064 859.664 782.392 859.456 781.848 859.2L782.952 854.256C783.592 854.544 784.152 854.736 784.632 854.832C785.144 854.96 785.688 855.024 786.264 855.024C787.416 855.024 788.344 854.64 789.048 853.872C789.752 853.104 790.312 852.192 790.728 851.136C789.32 848.32 787.912 845.104 786.504 841.488C785.096 837.84 783.816 833.824 782.664 829.44H788.808C789.096 830.624 789.416 831.888 789.768 833.232C790.152 834.576 790.552 835.92 790.968 837.264C791.384 838.608 791.816 839.936 792.264 841.248C792.744 842.528 793.224 843.728 793.704 844.848C794.024 843.728 794.36 842.528 794.712 841.248C795.064 839.936 795.4 838.624 795.72 837.312C796.04 835.968 796.344 834.624 796.632 833.28C796.952 831.936 797.24 830.656 797.496 829.44H803.544Z" fill="#627EEA"/>
<path d="M322.888 311.056L552.888 276V761.778L380.888 644.416L322.888 311.056Z" fill="#C1CCF7"/>
<path d="M552.888 761.778L732.888 644.416L782.888 311.056L552.888 276V761.778Z" fill="#8198EE"/>
<path d="M552.388 295.597L531.888 299.026L532.388 725.742L552.388 736.52V295.597Z" fill="#C1CCF7"/>
<path d="M552.888 295.597L573.388 299.026L572.888 725.742L552.888 736.52V295.597Z" fill="#8198EE"/>
<path d="M551.888 301.476L408.888 515.078L551.888 585.066V301.476Z" fill="white" fill-opacity="0.44"/>
<path d="M551.888 618.38L441.178 564.196L551.888 732.601V618.38Z" fill="white" fill-opacity="0.44"/>
<path d="M552.888 441.591L409.888 515.078L552.888 585.136V441.591Z" fill="#627EEA" fill-opacity="0.21"/>
<path d="M552.888 301.476L695.888 515.078L552.888 585.066V301.476Z" fill="#627EEA" fill-opacity="0.21"/>
<path d="M552.888 618.38L663.598 564.196L552.888 732.601V618.38Z" fill="#627EEA" fill-opacity="0.21"/>
<path d="M552.888 441.591L695.888 515.078L552.888 585.136V441.591Z" fill="#627EEA" fill-opacity="0.21"/>
</svg>
