<svg width="1105" height="1136" viewBox="0 0 1105 1136" fill="none" xmlns="http://www.w3.org/2000/svg">
<path d="M322.888 311.056L552.888 276V761.778L380.888 644.416L322.888 311.056Z" fill="#C1CCF7"/>
<path d="M552.888 761.778L732.888 644.416L782.888 311.056L552.888 276V761.778Z" fill="#8198EE"/>
<path d="M552.388 295.597L531.888 299.026L532.388 725.742L552.388 736.52V295.597Z" fill="#C1CCF7"/>
<path d="M552.888 295.597L573.388 299.026L572.888 725.742L552.888 736.52V295.597Z" fill="#8198EE"/>
<path d="M551.888 301.476L408.888 515.078L551.888 585.066V301.476Z" fill="white" fill-opacity="0.44"/>
<path d="M551.888 618.38L441.178 564.196L551.888 732.601V618.38Z" fill="white" fill-opacity="0.44"/>
<path d="M552.888 441.591L409.888 515.078L552.888 585.136V441.591Z" fill="#90A5F7"/>
<path d="M552.888 301.476L695.888 515.078L552.888 585.066V301.476Z" fill="#90A5F7"/>
<path d="M552.888 618.38L663.598 564.196L552.888 732.601V618.38Z" fill="#90A5F7"/>
<path d="M552.888 441.591L695.888 515.078L552.888 585.136V441.591Z" fill="#90A5F7"/>
<path d="M553 442L409.5 515L553 585V442Z" fill="#607EEC" fill-opacity="0.5"/>
<path d="M553 442L696.5 515L553 585V442Z" fill="#3C57BB" fill-opacity="0.46"/>
<path d="M335.55 844.6C336.217 844.6 336.867 844.6 337.5 844.6C338.133 844.567 338.683 844.517 339.15 844.45V839.05C338.75 838.983 338.267 838.933 337.7 838.9C337.133 838.833 336.617 838.8 336.15 838.8C335.517 838.8 334.9 838.85 334.3 838.95C333.7 839.017 333.167 839.15 332.7 839.35C332.267 839.55 331.917 839.833 331.65 840.2C331.383 840.567 331.25 841.05 331.25 841.65C331.25 842.717 331.65 843.483 332.45 843.95C333.25 844.383 334.283 844.6 335.55 844.6ZM335 824.9C336.933 824.9 338.533 825.133 339.8 825.6C341.1 826.033 342.133 826.667 342.9 827.5C343.667 828.3 344.217 829.3 344.55 830.5C344.883 831.667 345.05 832.983 345.05 834.45V848.45C344.15 848.65 342.817 848.883 341.05 849.15C339.283 849.417 337.3 849.55 335.1 849.55C333.6 849.55 332.233 849.417 331 849.15C329.8 848.883 328.767 848.45 327.9 847.85C327.033 847.217 326.367 846.417 325.9 845.45C325.433 844.45 325.2 843.233 325.2 841.8C325.2 840.433 325.467 839.283 326 838.35C326.533 837.417 327.25 836.667 328.15 836.1C329.05 835.533 330.083 835.133 331.25 834.9C332.417 834.633 333.633 834.5 334.9 834.5C336.5 834.5 337.917 834.633 339.15 834.9V834.15C339.15 832.983 338.783 832.017 338.05 831.25C337.317 830.45 336.05 830.05 334.25 830.05C333.083 830.05 331.95 830.133 330.85 830.3C329.783 830.467 328.917 830.667 328.25 830.9L327.4 825.95C328.167 825.683 329.25 825.45 330.65 825.25C332.05 825.017 333.5 824.9 335 824.9Z" fill="#627EEA"/>
<path d="M364.1 849C363.733 847.967 363.383 847.017 363.05 846.15C362.75 845.283 362.45 844.45 362.15 843.65C361.883 842.817 361.6 841.967 361.3 841.1C361.033 840.2 360.75 839.217 360.45 838.15C360.117 839.217 359.817 840.183 359.55 841.05C359.283 841.883 359 842.717 358.7 843.55C358.433 844.383 358.15 845.233 357.85 846.1C357.55 846.967 357.183 847.933 356.75 849H352.1C351.7 847.533 351.317 845.917 350.95 844.15C350.617 842.35 350.3 840.45 350 838.45C349.7 836.417 349.433 834.317 349.2 832.15C348.967 829.983 348.75 827.767 348.55 825.5H353.8C353.933 828.4 354.067 831.233 354.2 834C354.367 836.767 354.65 839.617 355.05 842.55C355.483 841.283 355.85 840.117 356.15 839.05C356.483 837.95 356.767 836.917 357 835.95C357.267 834.95 357.5 834 357.7 833.1C357.933 832.167 358.167 831.217 358.4 830.25H362.85C363.05 831.217 363.25 832.167 363.45 833.1C363.683 834 363.917 834.95 364.15 835.95C364.417 836.917 364.683 837.95 364.95 839.05C365.25 840.117 365.6 841.283 366 842.55C366.2 841.017 366.367 839.55 366.5 838.15C366.633 836.75 366.733 835.367 366.8 834C366.9 832.6 366.967 831.217 367 829.85C367.067 828.45 367.133 827 367.2 825.5H372.45C372.083 830.067 371.567 834.367 370.9 838.4C370.267 842.433 369.55 845.967 368.75 849H364.1Z" fill="#627EEA"/>
<path d="M374.55 837.45C374.55 835.383 374.867 833.567 375.5 832C376.133 830.433 376.967 829.133 378 828.1C379.033 827.033 380.217 826.233 381.55 825.7C382.883 825.167 384.25 824.9 385.65 824.9C389.117 824.9 391.75 825.933 393.55 828C395.35 830.033 396.25 833.017 396.25 836.95C396.25 837.35 396.233 837.767 396.2 838.2C396.2 838.633 396.183 838.983 396.15 839.25H380.9C380.9 840.783 381.533 842 382.8 842.9C384.067 843.767 385.7 844.2 387.7 844.2C388.933 844.2 390.1 844.067 391.2 843.8C392.333 843.533 393.283 843.267 394.05 843L394.9 848.25C393.833 848.617 392.7 848.917 391.5 849.15C390.3 849.417 388.95 849.55 387.45 849.55C385.45 849.55 383.65 849.3 382.05 848.8C380.483 848.267 379.133 847.5 378 846.5C376.9 845.467 376.05 844.2 375.45 842.7C374.85 841.2 374.55 839.45 374.55 837.45ZM390.3 835C390.3 834.367 390.217 833.767 390.05 833.2C389.883 832.6 389.617 832.067 389.25 831.6C388.883 831.133 388.417 830.767 387.85 830.5C387.283 830.2 386.583 830.05 385.75 830.05C384.95 830.05 384.25 830.183 383.65 830.45C383.083 830.717 382.6 831.083 382.2 831.55C381.833 832.017 381.533 832.55 381.3 833.15C381.1 833.75 380.967 834.367 380.9 835H390.3Z" fill="#627EEA"/>
<path d="M409.4 844.35C410.9 844.35 412.05 844.25 412.85 844.05C413.65 843.817 414.05 843.367 414.05 842.7C414.05 842.267 413.917 841.9 413.65 841.6C413.417 841.3 413.067 841.05 412.6 840.85C412.167 840.617 411.65 840.4 411.05 840.2C410.483 840 409.883 839.8 409.25 839.6C408.35 839.333 407.433 839.033 406.5 838.7C405.567 838.333 404.717 837.883 403.95 837.35C403.183 836.817 402.55 836.15 402.05 835.35C401.55 834.517 401.3 833.483 401.3 832.25C401.3 831.25 401.483 830.317 401.85 829.45C402.25 828.55 402.85 827.767 403.65 827.1C404.483 826.4 405.533 825.867 406.8 825.5C408.067 825.1 409.583 824.9 411.35 824.9C412.883 824.9 414.3 825.017 415.6 825.25C416.933 825.483 418.083 825.817 419.05 826.25L418.1 831.45C417.533 831.283 416.65 831.017 415.45 830.65C414.25 830.25 412.9 830.05 411.4 830.05C409.833 830.05 408.767 830.25 408.2 830.65C407.667 831.017 407.4 831.417 407.4 831.85C407.4 832.217 407.517 832.55 407.75 832.85C408.017 833.117 408.35 833.367 408.75 833.6C409.183 833.833 409.667 834.067 410.2 834.3C410.767 834.5 411.367 834.7 412 834.9C412.9 835.2 413.833 835.533 414.8 835.9C415.767 836.267 416.633 836.733 417.4 837.3C418.2 837.833 418.85 838.533 419.35 839.4C419.85 840.233 420.1 841.267 420.1 842.5C420.1 843.467 419.917 844.383 419.55 845.25C419.183 846.117 418.567 846.867 417.7 847.5C416.867 848.133 415.767 848.633 414.4 849C413.033 849.367 411.35 849.55 409.35 849.55C407.317 849.55 405.583 849.317 404.15 848.85C402.717 848.383 401.567 847.967 400.7 847.6L401.65 842.45C402.817 842.917 404.05 843.35 405.35 843.75C406.683 844.15 408.033 844.35 409.4 844.35Z" fill="#627EEA"/>
<path d="M446.6 837.2C446.6 839.067 446.333 840.767 445.8 842.3C445.267 843.8 444.517 845.1 443.55 846.2C442.583 847.3 441.417 848.15 440.05 848.75C438.717 849.35 437.217 849.65 435.55 849.65C433.883 849.65 432.367 849.35 431 848.75C429.667 848.15 428.5 847.3 427.5 846.2C426.533 845.1 425.783 843.8 425.25 842.3C424.717 840.767 424.45 839.067 424.45 837.2C424.45 835.367 424.717 833.7 425.25 832.2C425.817 830.667 426.583 829.367 427.55 828.3C428.55 827.2 429.733 826.367 431.1 825.8C432.467 825.2 433.95 824.9 435.55 824.9C437.183 824.9 438.667 825.2 440 825.8C441.367 826.367 442.533 827.2 443.5 828.3C444.5 829.367 445.267 830.667 445.8 832.2C446.333 833.7 446.6 835.367 446.6 837.2ZM430.7 837.25C430.7 839.35 431.067 841.05 431.8 842.35C432.567 843.65 433.783 844.3 435.45 844.3C437.05 844.3 438.25 843.65 439.05 842.35C439.883 841.05 440.3 839.35 440.3 837.25C440.3 835.15 439.917 833.467 439.15 832.2C438.417 830.9 437.217 830.25 435.55 830.25C433.95 830.25 432.733 830.9 431.9 832.2C431.1 833.467 430.7 835.15 430.7 837.25Z" fill="#627EEA"/>
<path d="M465.15 825.25C466.45 825.25 467.517 825.45 468.35 825.85C469.183 826.25 469.833 826.85 470.3 827.65C470.8 828.45 471.133 829.467 471.3 830.7C471.467 831.9 471.55 833.317 471.55 834.95V849H466.55V834.65C466.55 833.717 466.483 832.967 466.35 832.4C466.25 831.833 466.1 831.4 465.9 831.1C465.733 830.8 465.517 830.6 465.25 830.5C465.017 830.4 464.767 830.35 464.5 830.35C464.2 830.35 463.883 830.383 463.55 830.45C463.217 830.483 462.917 830.567 462.65 830.7C462.75 831.333 462.833 832.033 462.9 832.8C462.967 833.567 463 834.417 463 835.35V840.05H458V834.65C458 833.05 457.833 831.933 457.5 831.3C457.2 830.667 456.7 830.35 456 830.35C455.8 830.35 455.55 830.367 455.25 830.4C454.983 830.433 454.717 830.483 454.45 830.55V849H449.45V826.4C450.75 826.033 452.033 825.75 453.3 825.55C454.567 825.35 455.683 825.25 456.65 825.25C457.517 825.25 458.283 825.367 458.95 825.6C459.65 825.8 460.25 826.15 460.75 826.65C461.317 826.283 461.983 825.967 462.75 825.7C463.517 825.4 464.317 825.25 465.15 825.25Z" fill="#627EEA"/>
<path d="M474.55 837.45C474.55 835.383 474.867 833.567 475.5 832C476.133 830.433 476.967 829.133 478 828.1C479.033 827.033 480.217 826.233 481.55 825.7C482.883 825.167 484.25 824.9 485.65 824.9C489.117 824.9 491.75 825.933 493.55 828C495.35 830.033 496.25 833.017 496.25 836.95C496.25 837.35 496.233 837.767 496.2 838.2C496.2 838.633 496.183 838.983 496.15 839.25H480.9C480.9 840.783 481.533 842 482.8 842.9C484.067 843.767 485.7 844.2 487.7 844.2C488.933 844.2 490.1 844.067 491.2 843.8C492.333 843.533 493.283 843.267 494.05 843L494.9 848.25C493.833 848.617 492.7 848.917 491.5 849.15C490.3 849.417 488.95 849.55 487.45 849.55C485.45 849.55 483.65 849.3 482.05 848.8C480.483 848.267 479.133 847.5 478 846.5C476.9 845.467 476.05 844.2 475.45 842.7C474.85 841.2 474.55 839.45 474.55 837.45ZM490.3 835C490.3 834.367 490.217 833.767 490.05 833.2C489.883 832.6 489.617 832.067 489.25 831.6C488.883 831.133 488.417 830.767 487.85 830.5C487.283 830.2 486.583 830.05 485.75 830.05C484.95 830.05 484.25 830.183 483.65 830.45C483.083 830.717 482.6 831.083 482.2 831.55C481.833 832.017 481.533 832.55 481.3 833.15C481.1 833.75 480.967 834.367 480.9 835H490.3Z" fill="#627EEA"/>
<path d="M524.55 837.45C524.55 835.383 524.867 833.567 525.5 832C526.133 830.433 526.967 829.133 528 828.1C529.033 827.033 530.217 826.233 531.55 825.7C532.883 825.167 534.25 824.9 535.65 824.9C539.117 824.9 541.75 825.933 543.55 828C545.35 830.033 546.25 833.017 546.25 836.95C546.25 837.35 546.233 837.767 546.2 838.2C546.2 838.633 546.183 838.983 546.15 839.25H530.9C530.9 840.783 531.533 842 532.8 842.9C534.067 843.767 535.7 844.2 537.7 844.2C538.933 844.2 540.1 844.067 541.2 843.8C542.333 843.533 543.283 843.267 544.05 843L544.9 848.25C543.833 848.617 542.7 848.917 541.5 849.15C540.3 849.417 538.95 849.55 537.45 849.55C535.45 849.55 533.65 849.3 532.05 848.8C530.483 848.267 529.133 847.5 528 846.5C526.9 845.467 526.05 844.2 525.45 842.7C524.85 841.2 524.55 839.45 524.55 837.45ZM540.3 835C540.3 834.367 540.217 833.767 540.05 833.2C539.883 832.6 539.617 832.067 539.25 831.6C538.883 831.133 538.417 830.767 537.85 830.5C537.283 830.2 536.583 830.05 535.75 830.05C534.95 830.05 534.25 830.183 533.65 830.45C533.083 830.717 532.6 831.083 532.2 831.55C531.833 832.017 531.533 832.55 531.3 833.15C531.1 833.75 530.967 834.367 530.9 835H540.3Z" fill="#627EEA"/>
<path d="M557.7 849C556.2 846.033 554.667 842.567 553.1 838.6C551.567 834.6 550.1 830.233 548.7 825.5H555.15C555.45 826.767 555.8 828.117 556.2 829.55C556.633 830.983 557.083 832.433 557.55 833.9C558.017 835.333 558.483 836.733 558.95 838.1C559.45 839.467 559.917 840.717 560.35 841.85C560.783 840.717 561.267 839.467 561.8 838.1C562.333 836.733 562.85 835.333 563.35 833.9C563.883 832.433 564.383 830.983 564.85 829.55C565.35 828.117 565.75 826.767 566.05 825.5H572.3C570.9 830.233 569.35 834.6 567.65 838.6C565.95 842.567 564.35 846.033 562.85 849H557.7Z" fill="#627EEA"/>
<path d="M590.15 825.25C591.45 825.25 592.517 825.45 593.35 825.85C594.183 826.25 594.833 826.85 595.3 827.65C595.8 828.45 596.133 829.467 596.3 830.7C596.467 831.9 596.55 833.317 596.55 834.95V849H591.55V834.65C591.55 833.717 591.483 832.967 591.35 832.4C591.25 831.833 591.1 831.4 590.9 831.1C590.733 830.8 590.517 830.6 590.25 830.5C590.017 830.4 589.767 830.35 589.5 830.35C589.2 830.35 588.883 830.383 588.55 830.45C588.217 830.483 587.917 830.567 587.65 830.7C587.75 831.333 587.833 832.033 587.9 832.8C587.967 833.567 588 834.417 588 835.35V840.05H583V834.65C583 833.05 582.833 831.933 582.5 831.3C582.2 830.667 581.7 830.35 581 830.35C580.8 830.35 580.55 830.367 580.25 830.4C579.983 830.433 579.717 830.483 579.45 830.55V849H574.45V826.4C575.75 826.033 577.033 825.75 578.3 825.55C579.567 825.35 580.683 825.25 581.65 825.25C582.517 825.25 583.283 825.367 583.95 825.6C584.65 825.8 585.25 826.15 585.75 826.65C586.317 826.283 586.983 825.967 587.75 825.7C588.517 825.4 589.317 825.25 590.15 825.25Z" fill="#627EEA"/>
<path d="M634.4 844.35C635.9 844.35 637.05 844.25 637.85 844.05C638.65 843.817 639.05 843.367 639.05 842.7C639.05 842.267 638.917 841.9 638.65 841.6C638.417 841.3 638.067 841.05 637.6 840.85C637.167 840.617 636.65 840.4 636.05 840.2C635.483 840 634.883 839.8 634.25 839.6C633.35 839.333 632.433 839.033 631.5 838.7C630.567 838.333 629.717 837.883 628.95 837.35C628.183 836.817 627.55 836.15 627.05 835.35C626.55 834.517 626.3 833.483 626.3 832.25C626.3 831.25 626.483 830.317 626.85 829.45C627.25 828.55 627.85 827.767 628.65 827.1C629.483 826.4 630.533 825.867 631.8 825.5C633.067 825.1 634.583 824.9 636.35 824.9C637.883 824.9 639.3 825.017 640.6 825.25C641.933 825.483 643.083 825.817 644.05 826.25L643.1 831.45C642.533 831.283 641.65 831.017 640.45 830.65C639.25 830.25 637.9 830.05 636.4 830.05C634.833 830.05 633.767 830.25 633.2 830.65C632.667 831.017 632.4 831.417 632.4 831.85C632.4 832.217 632.517 832.55 632.75 832.85C633.017 833.117 633.35 833.367 633.75 833.6C634.183 833.833 634.667 834.067 635.2 834.3C635.767 834.5 636.367 834.7 637 834.9C637.9 835.2 638.833 835.533 639.8 835.9C640.767 836.267 641.633 836.733 642.4 837.3C643.2 837.833 643.85 838.533 644.35 839.4C644.85 840.233 645.1 841.267 645.1 842.5C645.1 843.467 644.917 844.383 644.55 845.25C644.183 846.117 643.567 846.867 642.7 847.5C641.867 848.133 640.767 848.633 639.4 849C638.033 849.367 636.35 849.55 634.35 849.55C632.317 849.55 630.583 849.317 629.15 848.85C627.717 848.383 626.567 847.967 625.7 847.6L626.65 842.45C627.817 842.917 629.05 843.35 630.35 843.75C631.683 844.15 633.033 844.35 634.4 844.35Z" fill="#627EEA"/>
<path d="M649.55 837.45C649.55 835.383 649.867 833.567 650.5 832C651.133 830.433 651.967 829.133 653 828.1C654.033 827.033 655.217 826.233 656.55 825.7C657.883 825.167 659.25 824.9 660.65 824.9C664.117 824.9 666.75 825.933 668.55 828C670.35 830.033 671.25 833.017 671.25 836.95C671.25 837.35 671.233 837.767 671.2 838.2C671.2 838.633 671.183 838.983 671.15 839.25H655.9C655.9 840.783 656.533 842 657.8 842.9C659.067 843.767 660.7 844.2 662.7 844.2C663.933 844.2 665.1 844.067 666.2 843.8C667.333 843.533 668.283 843.267 669.05 843L669.9 848.25C668.833 848.617 667.7 848.917 666.5 849.15C665.3 849.417 663.95 849.55 662.45 849.55C660.45 849.55 658.65 849.3 657.05 848.8C655.483 848.267 654.133 847.5 653 846.5C651.9 845.467 651.05 844.2 650.45 842.7C649.85 841.2 649.55 839.45 649.55 837.45ZM665.3 835C665.3 834.367 665.217 833.767 665.05 833.2C664.883 832.6 664.617 832.067 664.25 831.6C663.883 831.133 663.417 830.767 662.85 830.5C662.283 830.2 661.583 830.05 660.75 830.05C659.95 830.05 659.25 830.183 658.65 830.45C658.083 830.717 657.6 831.083 657.2 831.55C656.833 832.017 656.533 832.55 656.3 833.15C656.1 833.75 655.967 834.367 655.9 835H665.3Z" fill="#627EEA"/>
<path d="M675.2 837.25C675.2 835.55 675.467 833.95 676 832.45C676.533 830.95 677.35 829.65 678.45 828.55C679.55 827.417 680.933 826.533 682.6 825.9C684.3 825.233 686.317 824.9 688.65 824.9C690.05 824.9 691.317 825 692.45 825.2C693.583 825.4 694.733 825.733 695.9 826.2L694.55 831.15C693.883 830.917 693.133 830.717 692.3 830.55C691.5 830.35 690.467 830.25 689.2 830.25C687.733 830.25 686.5 830.433 685.5 830.8C684.533 831.133 683.75 831.617 683.15 832.25C682.55 832.85 682.117 833.583 681.85 834.45C681.583 835.317 681.45 836.25 681.45 837.25C681.45 839.417 682.05 841.117 683.25 842.35C684.483 843.583 686.567 844.2 689.5 844.2C690.467 844.2 691.467 844.133 692.5 844C693.567 843.867 694.533 843.65 695.4 843.35L696.3 848.4C695.433 848.733 694.383 849 693.15 849.2C691.917 849.433 690.467 849.55 688.8 849.55C686.4 849.55 684.333 849.233 682.6 848.6C680.9 847.967 679.5 847.1 678.4 846C677.3 844.9 676.483 843.6 675.95 842.1C675.45 840.6 675.2 838.983 675.2 837.25Z" fill="#627EEA"/>
<path d="M719.9 848.2C718.767 848.5 717.383 848.8 715.75 849.1C714.15 849.4 712.4 849.55 710.5 849.55C708.567 849.55 706.983 849.283 705.75 848.75C704.517 848.217 703.533 847.467 702.8 846.5C702.1 845.5 701.617 844.333 701.35 843C701.083 841.667 700.95 840.2 700.95 838.6V825.5H707.1V837.8C707.1 839.967 707.35 841.583 707.85 842.65C708.383 843.683 709.4 844.2 710.9 844.2C711.833 844.2 712.767 844.117 713.7 843.95V825.5H719.9V848.2Z" fill="#627EEA"/>
<path d="M744.85 831.75C744.45 831.65 743.967 831.55 743.4 831.45C742.867 831.35 742.317 831.267 741.75 831.2C741.183 831.1 740.633 831.033 740.1 831C739.567 830.967 739.117 830.95 738.75 830.95C737.883 830.95 737.033 831 736.2 831.1C735.367 831.167 734.517 831.317 733.65 831.55V849H727.45V827.05C729.083 826.45 730.75 825.967 732.45 825.6C734.183 825.233 736.2 825.05 738.5 825.05C738.833 825.05 739.3 825.067 739.9 825.1C740.533 825.133 741.2 825.2 741.9 825.3C742.6 825.367 743.3 825.467 744 825.6C744.733 825.7 745.383 825.85 745.95 826.05L744.85 831.75Z" fill="#627EEA"/>
<path d="M762.2 818.75C762.2 819.95 761.817 820.9 761.05 821.6C760.283 822.3 759.367 822.65 758.3 822.65C757.233 822.65 756.317 822.3 755.55 821.6C754.817 820.9 754.45 819.95 754.45 818.75C754.45 817.517 754.817 816.55 755.55 815.85C756.317 815.15 757.233 814.8 758.3 814.8C759.367 814.8 760.283 815.15 761.05 815.85C761.817 816.55 762.2 817.517 762.2 818.75ZM771.35 848C770.083 848.6 768.883 849 767.75 849.2C766.65 849.433 765.633 849.55 764.7 849.55C763.1 849.55 761.75 849.317 760.65 848.85C759.583 848.383 758.717 847.717 758.05 846.85C757.417 845.95 756.967 844.867 756.7 843.6C756.433 842.333 756.3 840.883 756.3 839.25V830.6H749.8V825.5H762.45V840.05C762.45 841.45 762.7 842.5 763.2 843.2C763.733 843.867 764.6 844.2 765.8 844.2C766.367 844.2 767.05 844.133 767.85 844C768.65 843.833 769.55 843.517 770.55 843.05L771.35 848Z" fill="#627EEA"/>
<path d="M780.15 830.6H774.8V825.5H780.15V819.6L786.3 818.6V825.5H796.15V830.6H786.3V840.1C786.3 840.967 786.383 841.667 786.55 842.2C786.717 842.733 786.95 843.15 787.25 843.45C787.55 843.75 787.917 843.95 788.35 844.05C788.783 844.15 789.267 844.2 789.8 844.2C790.367 844.2 790.883 844.183 791.35 844.15C791.85 844.117 792.317 844.067 792.75 844C793.217 843.9 793.683 843.767 794.15 843.6C794.65 843.433 795.183 843.217 795.75 842.95L796.6 848.25C795.467 848.717 794.233 849.05 792.9 849.25C791.6 849.45 790.333 849.55 789.1 849.55C787.667 849.55 786.4 849.433 785.3 849.2C784.2 848.967 783.267 848.517 782.5 847.85C781.733 847.183 781.15 846.25 780.75 845.05C780.35 843.817 780.15 842.217 780.15 840.25V830.6Z" fill="#627EEA"/>
<path d="M821.6 825.5C820.967 827.7 820.35 829.867 819.75 832C819.183 834.1 818.583 836.167 817.95 838.2C817.317 840.2 816.633 842.167 815.9 844.1C815.2 846.033 814.433 847.917 813.6 849.75C812.967 851.083 812.333 852.233 811.7 853.2C811.1 854.167 810.417 854.95 809.65 855.55C808.917 856.183 808.083 856.65 807.15 856.95C806.25 857.25 805.183 857.4 803.95 857.4C802.917 857.4 801.967 857.317 801.1 857.15C800.267 856.983 799.567 856.767 799 856.5L800.15 851.35C800.817 851.65 801.4 851.85 801.9 851.95C802.433 852.083 803 852.15 803.6 852.15C804.8 852.15 805.767 851.75 806.5 850.95C807.233 850.15 807.817 849.2 808.25 848.1C806.783 845.167 805.317 841.817 803.85 838.05C802.383 834.25 801.05 830.067 799.85 825.5H806.25C806.55 826.733 806.883 828.05 807.25 829.45C807.65 830.85 808.067 832.25 808.5 833.65C808.933 835.05 809.383 836.433 809.85 837.8C810.35 839.133 810.85 840.383 811.35 841.55C811.683 840.383 812.033 839.133 812.4 837.8C812.767 836.433 813.117 835.067 813.45 833.7C813.783 832.3 814.1 830.9 814.4 829.5C814.733 828.1 815.033 826.767 815.3 825.5H821.6Z" fill="#627EEA"/>
</svg>
