<svg width="1105" height="589" viewBox="0 0 1105 589" fill="none" xmlns="http://www.w3.org/2000/svg">
<path d="M323 86.0561L553 51V536.778L381 419.416L323 86.0561Z" fill="#C1CCF7"/>
<path d="M553 536.778L733 419.416L783 86.0561L553 51V536.778Z" fill="#8198EE"/>
<path d="M552.5 70.5966L532 74.026L532.5 500.742L552.5 511.52V70.5966Z" fill="#C1CCF7"/>
<path d="M553 70.5966L573.5 74.026L573 500.742L553 511.52V70.5966Z" fill="#8198EE"/>
<path d="M552 76.4756L409 290.078L552 360.066V76.4756Z" fill="white" fill-opacity="0.44"/>
<path d="M552 393.38L441.29 339.196L552 507.601V393.38Z" fill="white" fill-opacity="0.44"/>
<path d="M553 216.591L410 290.078L553 360.136V216.591Z" fill="#90A5F7"/>
<path d="M553 76.4756L696 290.078L553 360.066V76.4756Z" fill="#90A5F7"/>
<path d="M553 393.38L663.71 339.196L553 507.601V393.38Z" fill="#90A5F7"/>
<path d="M553 216.591L696 290.078L553 360.136V216.591Z" fill="#90A5F7"/>
<path d="M553.112 217L409.612 290L553.112 360V217Z" fill="#607EEC" fill-opacity="0.5"/>
<path d="M553.112 217L696.612 290L553.112 360V217Z" fill="#3C57BB" fill-opacity="0.46"/>
</svg>
